<svg width="512" height="512" viewBox="0 0 512 512" fill="none" xmlns="http://www.w3.org/2000/svg">
<rect width="512" height="512" fill="#0034AE"/>
<g clip-path="url(#clip0_198_55)">
<path d="M279.099 204.186C282.254 193.369 284.667 182.923 285.012 180.935C285.595 177.382 286.178 173.83 286.735 170.304C287.053 168.368 285.833 173.432 282.493 183.507C280.266 190.108 277.217 198.327 273.665 206.201C269.264 215.904 264.916 222.93 260.303 226.217C257.042 228.497 253.224 228.206 250.573 225.13C247.63 221.684 245.111 214.207 243.547 205.83C241.294 193.767 240.445 179.397 240.207 165.267C239.968 151.162 239.888 113.171 239.57 115.106C238.987 118.632 238.165 134.831 237.158 152.355C236.601 162.112 236.044 174.784 236.177 188.146C235.647 194.27 234.957 200.236 233.95 205.671C232.386 214.048 229.867 221.525 226.924 224.971C224.246 228.047 220.429 228.338 217.194 226.058C212.555 222.771 208.207 215.745 203.806 206.042C200.253 198.168 197.204 189.949 194.977 183.348C191.637 173.273 190.417 168.209 190.709 170.145C191.292 173.671 191.849 177.25 192.432 180.802C192.75 182.791 195.163 193.237 198.344 204.053C201.102 213.492 204.283 223.036 207.836 230.91C212.21 240.587 216.584 247.639 221.198 250.9C224.459 253.206 228.276 252.888 230.927 249.813C233.87 246.366 236.389 238.89 237.953 230.512C238.245 228.922 238.457 227.198 238.722 225.501C238.961 227.251 239.199 229.028 239.491 230.698C241.055 239.076 243.574 246.552 246.516 249.998C249.168 253.074 253.012 253.392 256.246 251.085C260.886 247.798 265.234 240.772 269.635 231.095C273.187 223.195 276.369 213.677 279.126 204.212" fill="white"/>
<path d="M207.915 319.804C203.381 319.247 195.799 321.289 187.925 324.629C186.387 325.292 184.77 326.088 183.179 326.83C184.425 325.69 185.751 324.576 186.917 323.436C193.042 317.498 197.867 311.267 199.139 306.919C200.226 303.022 198.397 299.629 194.659 298.197C189.383 296.156 181.111 296.394 170.613 298.091C162.076 299.496 152.346 302.094 142.961 305.011C132.197 308.351 122.175 312.116 120.319 312.938C117.032 314.422 113.771 315.907 110.484 317.365C108.681 318.187 113.585 316.411 123.846 313.627C130.58 311.824 139.116 309.836 147.653 308.457C158.152 306.76 166.424 306.495 171.726 308.537C175.411 309.995 177.293 313.362 176.207 317.259C174.934 321.634 170.109 327.837 163.958 333.776C159.981 337.62 155.421 341.491 150.57 345.309C139.355 352.573 129.095 360.023 121.274 365.908C107.223 376.407 94.1788 386.057 91.5276 388.496C90.096 389.822 121.831 368.904 133.735 361.322C145.638 353.713 158.072 346.502 169.393 341.703C177.24 338.363 184.876 336.348 189.356 336.878C193.386 337.382 195.746 340.404 195.64 344.381C195.481 350.054 192.008 357.584 186.334 366.571C181.747 373.888 176.578 380.967 172.283 386.482C165.734 394.833 162.182 398.65 163.613 397.325C166.265 394.912 168.889 392.447 171.567 390.008C173.025 388.629 180.395 380.861 187.686 372.245C194.049 364.742 200.226 356.815 204.866 349.497C210.513 340.51 213.986 333.007 214.145 327.307C214.304 323.304 211.918 320.308 207.888 319.778" fill="white"/>
<path d="M161.519 253.365C167.802 259.119 172.813 265.216 174.165 269.564C175.384 273.435 173.608 276.828 169.923 278.393C164.7 280.567 156.428 280.54 145.877 279.108C137.287 277.968 128.724 276.192 121.937 274.575C111.623 272.083 106.666 270.439 108.495 271.181C111.782 272.587 115.123 273.965 118.437 275.37C120.293 276.139 130.394 279.612 141.264 282.688C150.755 285.365 160.511 287.725 169.101 288.891C179.626 290.323 187.898 290.35 193.147 288.176C196.833 286.638 198.582 283.218 197.389 279.347C196.011 274.999 191.026 268.928 184.743 263.175C183.497 262.035 182.118 260.895 180.766 259.755C182.304 260.418 183.895 261.16 185.379 261.77C193.333 264.898 200.995 266.727 205.475 266.065C209.479 265.455 211.812 262.379 211.547 258.376C211.228 252.703 207.57 245.279 201.684 236.424C196.859 229.24 190.47 221.472 183.921 214.128C176.418 205.697 168.863 198.141 167.351 196.789C164.621 194.43 161.916 192.044 159.212 189.684C157.728 188.411 161.386 192.123 168.147 200.289C172.574 205.697 177.93 212.617 182.728 219.828C188.64 228.656 192.273 236.08 192.617 241.753C192.829 245.73 190.549 248.805 186.519 249.442C182.039 250.078 174.377 248.275 166.423 245.147C161.28 243.132 155.872 240.56 150.384 237.75C139.143 230.539 128.114 224.282 119.524 219.616C104.147 211.159 89.9632 203.285 86.6757 201.879C84.8729 201.137 117.058 221.366 128.883 229.028C140.76 236.689 152.478 245.041 161.519 253.365Z" fill="white"/>
<path d="M358.237 365.908C350.416 360.023 340.156 352.573 328.942 345.309C324.117 341.491 319.556 337.647 315.553 333.776C309.429 327.837 304.577 321.634 303.305 317.259C302.218 313.362 304.074 309.995 307.785 308.537C313.088 306.495 321.359 306.734 331.858 308.457C340.395 309.836 348.932 311.851 355.692 313.627C365.926 316.384 370.83 318.187 369.054 317.365C365.793 315.907 362.506 314.422 359.218 312.938C357.389 312.116 347.341 308.378 336.577 305.011C327.165 302.094 317.462 299.496 308.925 298.091C298.426 296.394 290.155 296.129 284.879 298.197C281.141 299.629 279.285 303.022 280.398 306.919C281.644 311.294 286.47 317.498 292.62 323.436C293.76 324.55 295.113 325.69 296.359 326.83C294.768 326.088 293.151 325.292 291.613 324.629C283.765 321.315 276.13 319.274 271.623 319.804C267.593 320.334 265.207 323.33 265.366 327.334C265.552 333.007 268.998 340.51 274.645 349.524C279.258 356.868 285.462 364.768 291.799 372.271C299.089 380.888 306.46 388.656 307.918 390.034C310.569 392.473 313.22 394.912 315.845 397.351C317.276 398.704 313.724 394.859 307.175 386.535C302.907 381.02 297.737 373.941 293.124 366.624C287.451 357.637 284.004 350.107 283.818 344.434C283.712 340.457 286.072 337.435 290.102 336.904C294.609 336.374 302.218 338.389 310.065 341.73C321.359 346.528 333.82 353.739 345.697 361.348C357.601 368.957 389.336 389.849 387.904 388.523C385.279 386.084 372.209 376.46 358.184 365.935" fill="white"/>
<path d="M381.462 271.95C373.084 273.939 362.479 276.139 351.901 277.571C338.884 279.321 328.677 279.374 322.208 276.696C317.674 274.761 315.5 270.572 316.958 265.8C318.655 260.444 324.806 252.941 332.574 245.81C343.735 235.549 358.211 225.263 372.845 215.798C387.48 206.307 427.195 181.359 424.968 182.261C420.885 183.984 403.387 193.714 384.405 204.133C373.8 209.912 360.173 217.654 346.28 226.535C339.52 230.008 332.839 233.163 326.476 235.682C316.667 239.526 307.228 241.806 301.687 240.984C296.73 240.216 293.893 236.398 294.158 231.493C294.582 224.494 299.089 215.321 306.38 204.398C312.292 195.517 318.894 186.927 324.382 180.272C332.733 170.171 337.24 165.585 335.411 167.149C332.07 170.065 328.73 173.008 325.389 175.924C323.533 177.568 314.201 186.927 304.922 197.319C296.836 206.386 288.935 215.957 282.997 224.839C275.732 235.788 271.199 244.935 270.801 251.934C270.51 256.865 273.373 260.656 278.304 261.425C283.845 262.247 293.31 259.993 303.119 256.149C304.975 255.407 306.937 254.505 308.846 253.684C307.202 255.089 305.479 256.494 303.941 257.899C296.173 265.031 289.996 272.534 288.325 277.889C286.841 282.661 288.988 286.903 293.548 288.785C300.017 291.49 310.224 291.463 323.242 289.713C333.846 288.282 345.883 285.365 357.601 282.078C371.016 278.287 383.503 273.992 385.81 273.037C389.892 271.287 394.028 269.591 398.058 267.867C400.312 266.94 394.187 268.954 381.462 272.056" fill="white"/>
</g>
<defs>
<clipPath id="clip0_198_55">
<rect width="338.477" height="282.59" fill="white" transform="translate(86.5964 115)"/>
</clipPath>
</defs>
</svg>
